<?xml version="1.0" encoding="utf-8"?>
<!-- Generator: Adobe Illustrator 19.1.0, SVG Export Plug-In . SVG Version: 6.00 Build 0)  -->
<!DOCTYPE svg PUBLIC "-//W3C//DTD SVG 1.1//EN" "http://www.w3.org/Graphics/SVG/1.1/DTD/svg11.dtd">
<svg version="1.1" id="Layer_1" xmlns="http://www.w3.org/2000/svg" xmlns:xlink="http://www.w3.org/1999/xlink" x="0px" y="0px"
	 viewBox="0 0 24 24" style="enable-background:new 0 0 24 24;" xml:space="preserve">
<style type="text/css">
	.Drop_x0020_Shadow{fill:none;}
	.Outer_x0020_Glow_x0020_5_x0020_pt{fill:none;}
	.Blue_x0020_Neon{fill:none;stroke:#8AACDA;stroke-width:7;stroke-linecap:round;stroke-linejoin:round;}
	.Chrome_x0020_Highlight{fill:url(#SVGID_1_);stroke:#FFFFFF;stroke-width:0.3629;stroke-miterlimit:1;}
	.Jive_GS{fill:#FFDD00;}
	.Alyssa_GS{fill:#A6D0E4;}
	.st0{fill:#FFFFFF;}
	.st1{fill:#0EC49E;}
	.st2{fill:#EFEFEF;}
</style>
<linearGradient id="SVGID_1_" gradientUnits="userSpaceOnUse" x1="0" y1="0" x2="4.489659e-011" y2="-1">
	<stop  offset="0" style="stop-color:#656565"/>
	<stop  offset="0.618" style="stop-color:#1B1B1B"/>
	<stop  offset="0.6292" style="stop-color:#545454"/>
	<stop  offset="0.9831" style="stop-color:#3E3E3E"/>
</linearGradient>
<path class="st0" d="M24,22.2L1.5,22.8c0,0,0.7-3.4,0.9-8.6s0.2-8.5,0.2-8.5L24,4.2L24,22.2z"/>
<path class="st1" d="M24,21.5L0.2,20.4c0,0,1-3.5,1.4-8.5C2,7.3,1.9,3.7,1.9,3.7H24V21.5z"/>
<g>
	<path class="st2" d="M16.1,11.4c-1.4-0.7-3.4,0.2-4.9,0.3c-0.7,0.1-1.1,0.2-0.7-0.4c0.4-0.7,1.2-1.2,1.8-1.7
		c0.6-0.4,1.1-0.7,1.8-0.9c0.5-0.1,1.6,0.1,1.8-0.3c0.4-0.5-0.2-1.1-0.6-1.3c-0.8-0.2-1.7,0-2.4,0.3c-1.6,0.7-7.8,4.9-3.6,6
		c0.8,0.2,1.5,0.1,2.3,0c0.3,0,2.2-0.6,2.4-0.4c0.5,0.4-2.1,2.8-2.4,3.2c-0.4,0.7,0.1,1.6,1,1.4c0.7-0.1,1.4-1.5,1.8-2
		C15.1,14.9,17.9,12.2,16.1,11.4C15.9,11.3,16.6,11.6,16.1,11.4z"/>
</g>
</svg>
