<?xml version="1.0" encoding="utf-8"?>
<!-- Generator: Adobe Illustrator 19.1.0, SVG Export Plug-In . SVG Version: 6.00 Build 0)  -->
<!DOCTYPE svg PUBLIC "-//W3C//DTD SVG 1.1//EN" "http://www.w3.org/Graphics/SVG/1.1/DTD/svg11.dtd">
<svg version="1.1" id="Layer_1" xmlns="http://www.w3.org/2000/svg" xmlns:xlink="http://www.w3.org/1999/xlink" x="0px" y="0px"
	 viewBox="0 0 128 128" style="enable-background:new 0 0 128 128;" xml:space="preserve">
<style type="text/css">
	.Drop_x0020_Shadow{fill:none;}
	.Outer_x0020_Glow_x0020_5_x0020_pt{fill:none;}
	.Blue_x0020_Neon{fill:none;stroke:#8AACDA;stroke-width:7;stroke-linecap:round;stroke-linejoin:round;}
	.Chrome_x0020_Highlight{fill:url(#SVGID_1_);stroke:#FFFFFF;stroke-width:0.3629;stroke-miterlimit:1;}
	.Jive_GS{fill:#FFDD00;}
	.Alyssa_GS{fill:#A6D0E4;}
	.st0{opacity:0.6;fill:#B2C1BD;}
	.st1{fill:#0EC49E;}
</style>
<linearGradient id="SVGID_1_" gradientUnits="userSpaceOnUse" x1="0" y1="0" x2="4.489659e-011" y2="-1">
	<stop  offset="0" style="stop-color:#656565"/>
	<stop  offset="0.618" style="stop-color:#1B1B1B"/>
	<stop  offset="0.6292" style="stop-color:#545454"/>
	<stop  offset="0.9831" style="stop-color:#3E3E3E"/>
</linearGradient>
<g>
	<path class="st0" d="M7.1,115.5l120.4-3.2l0-1.8L8.8,104.9C7.9,111.7,7.1,115.5,7.1,115.5z"/>
	<path class="st1" d="M91.8,58.3c-0.8,1-0.7,2.6-0.7,3.6c0,0.4-0.1,4.5,0.1,4.6c0.8,0.2,2.7-3.1,3-3.7c0.9-1.4,2-3.1,2.4-4.8
		c0,0,0,0,0,0C97.3,54.2,93,56.9,91.8,58.3z"/>
</g>
<path class="st1" d="M9.5,14.8c0,0,0.2,19.4-1.8,44c-2.2,26.7-7.6,45.7-7.6,45.7l8.7,0.4l118.7,5.6l0.5,0V14.8H9.5z M24,66.1
	c-0.6,0.8-1.7,2.7-2.7,2.9c-1.3,0.2-2.1-1.1-1.5-2.1c0.4-0.6,4.1-4,3.5-4.6c-0.3-0.3-3,0.5-3.5,0.6c-1.1,0.2-2.3,0.2-3.4-0.1
	c-6.1-1.6,2.9-7.8,5.3-8.8c1-0.4,2.4-0.7,3.5-0.4c0.7,0.2,1.5,1.1,0.9,1.9c-0.4,0.6-2,0.3-2.7,0.4c-1,0.2-1.8,0.7-2.6,1.3
	c-0.9,0.7-2,1.5-2.6,2.5c-0.6,0.9,0.1,0.7,1,0.6c2.1-0.2,5-1.5,7.1-0.5c-0.1-0.1-0.1,0,0,0c0,0,0.1,0,0.1,0c0.1,0.1,0.3,0.1,0,0
	c0,0-0.1,0-0.1,0c0,0,0,0,0,0C29.1,61.1,25,64.9,24,66.1z M38.2,65.9c-1.2,1.4-2.7,3-4.6,3.3c-5.1,0.8-5-5.8-3.8-8.9
	c0.7-1.8,1.8-3.7,3.2-5c1.3-1.1,3.8-1.7,4.2,0.5c0.2,0.9,0,2,0,3c0,0.8,0.2,1.6-0.8,1.9c-2,0.6-1.9-2.6-2-3.8
	c-1,0.4-1.9,3.7-2.1,4.7c-0.2,0.9-0.9,4.5,0.3,5c1,0.5,2.7-2.1,3.2-2.8c0.9-1.1,1.2-2.7,2.9-2.4c-0.1,0-0.1,0-0.2,0
	c-0.1,0-0.1,0,0,0c0,0,0.1,0,0.2,0c0.5,0.1,0.2,0,0,0C41.2,62,39,64.9,38.2,65.9z M51.9,54.4c-1.6,1.1-3.2,2.8-4.3,4.4
	c-1.3,1.9-1.9,3.9-1.7,6.2c0.1,1.2,0.9,5.8-1.7,4.5c-1.8-0.9-1.2-4-1.3-5.6c-0.1-2.3-0.2-4.7-0.4-7c-0.1-1.4-1.2-4.8,1.1-4.5
	c2.6,0.3,0.8,3.1,1.7,4.5c1-1.2,2-2.3,3.1-3.3c0.7-0.6,2.1-2.3,3.1-2.3c0,0-0.1,0,0,0c0,0,0,0,0.1,0c0.1,0,0.2,0,0,0
	c0,0-0.1,0-0.1,0c0.7,0,1.8,0.5,1.8,1.4C53.5,53.6,52.5,54,51.9,54.4z M63.1,71.6c-2.1,0-1.6-3.3-2-4.7c-0.5,1.1-1,2.8-2.4,3.2
	c-1.2,0.3-2.5-0.3-3.2-1.2c-2-2.3-1.4-5.7-1.2-8.5c0.1-1.6-0.4-7.7,2.9-6.1c1.2,0.6,1,1.6,0.7,2.6c-0.5,1.5-0.9,2.9-1.1,4.4
	c-0.1,1.2-0.5,7.4,2,5.4c2.3-1.7,2.6-5.8,2.8-8.4c0.1-0.9-0.3-3.9,0.4-4.4c1.4-1,2.1,1.1,2.2,2c0.2,3.3,0,6.7,0.1,10c0,0,0,0,0,0
	C64.4,67.3,65.2,71.6,63.1,71.6z M82.1,68.5c-0.4-1.3-0.4-2.8-0.7-4.1c-0.1-0.9-0.1-3.4-0.8-4c-0.7,2.1-1.3,4.3-1.9,6.4
	c-0.4,1.4-0.5,3.4-2.4,2.9c-1.9-0.4-1.6-2.7-1.7-4.2c-0.1-1.1-0.1-2.2-0.2-3.3c0-0.6,0.2-2.3-0.3-2.8c-0.7,1.7-1.3,3.3-1.9,5
	c-0.5,1.6-0.7,3.3-1.3,4.8c-0.4,1.2-1.7,1.6-2.7,0.6c-1-1-0.6-3.1-0.6-4.4c-0.1-2-0.1-4-0.2-6c0-0.9-0.1-1.9-0.1-2.9
	c-0.1-0.6-0.3-1.4,0-1.9c0.8-1.1,2.7-0.5,3,0.7c0.4,1.5-0.3,3.3,0.3,4.7c0.9-1.5,1.8-3.1,2.7-4.6c0.6-1.1,1.2-2.1,2.6-1.7
	c1.5,0.4,1.3,1.8,1.3,3.1c0,0.4,0,3.6,0.3,3.7c0.2,0,1.8-4.9,2-5.5c0.4-0.9,0.7-1.3,1.7-1.1c0.7,0.1,1.1,0.4,1.4,1
	c1,1.7,0.9,4.6,1.2,6.6c0.4,2.3,0.7,4.5,1.1,6.8c0,0,0,0,0,0C85.4,70.9,82.6,70.5,82.1,68.5z M93.7,67.4c-1.2,1.3-3.2,4.8-5.1,3
	C87.6,69.6,88,68.1,88,67c0-1.2,0.1-2.5,0.1-3.7c0-0.7,0.1-1.5,0.1-2.2c0-0.6-0.3-0.9-0.4-1.4c-0.3-0.9,0.3-1.5,0.4-2.5
	c0.1-2.6,0.1-5.2,0.1-7.8c0-1.3-1.1-5.6,1.5-5c2,0.5,1.6,4.2,1.5,5.7c-0.1,1.3-0.2,2.6-0.2,3.8c0,1,0.1,1.3,1.1,0.8
	c2-1.1,4.2-1.5,6.3-0.3c-1.5-0.9,1.1,0.7,0,0C103,57.2,95.7,65.1,93.7,67.4z M104.5,50.5c-0.1,2.1-0.1,4.3-0.1,6.4c0,0.3,0,1,0,1.2
	c0,0.1,0,0.1,0,0c0-0.1,0-0.5,0-1.2c0,2.8,0,5.5,0,8.3c0,1.3,0.6,5.6-1,6.1c-2.3,0.7-2.4-2.4-2.3-3.7c0.1-2.5,0.2-4.9,0.3-7.4
	c0.1-2.7,0.2-5.5,0.2-8.2c0-1.3-1.1-5.2,1-5.3C104.8,46.5,104.6,49,104.5,50.5z M118.1,55.2c-0.4,0.7-1.4,1.1-2,1.6
	c-1.6,1.4-3.2,3-4.2,4.8c-1.2,2-1.2,3.9-1,6.1c0.1,1.2,0.5,5.1-1.9,3.5c-1.6-1.1-1-4.4-1.1-6.2c-0.1-2.4-0.3-4.8-0.4-7.3
	c-0.1-1.3-0.9-4.7,1.9-3.3c1.6,0.8,0.4,3,1,4.4c1.1-1,2-2.3,3.1-3.3c0.7-0.6,2.3-2.5,3.4-2.3c0,0,0,0,0,0c-0.1,0-0.1,0,0,0
	c0.1,0,0.4,0.1,0,0C117.7,53.4,118.6,54.2,118.1,55.2z M119.2,71c-0.3-0.7,0.1-1.5,0.8-1.7c0.8-0.3,1.5,0.4,1.9,1c0,0,0,0,0,0
	c0,0,0,0-0.1-0.1c0,0,0-0.1-0.1-0.1c-0.1-0.1,0-0.1,0,0c0,0,0,0,0.1,0.1c0,0,0,0.1,0.1,0.1c0,0,0,0,0,0
	C122.6,71.1,119.9,72.8,119.2,71z"/>
</svg>
